<svg viewBox="0 0 308 64" version="1.1" xmlns="http://www.w3.org/2000/svg" id="Warstwa_1">
  
  <defs>
    <style>
      .st0 {
        fill: #fff;
      }

      .st0, .st1 {
        fill-rule: evenodd;
      }

      .st1 {
        fill: #ff473c;
      }
    </style>
  </defs>
  <path d="M21.45,51h3.1l2.63-15.34h-8.52l2.79,15.34ZM12.77,32.72h20.61l.62-3.72H12l.77,3.72Z" class="st0" id="Fill-1"></path>
  <path d="M0,36.48c0,22.88,24.42,27.52,24.42,27.52,0,0,24.42-4.64,24.42-27.52V0H0v36.48ZM5.59,5.6h37.5v30.88c0,18.4-18.83,21.76-18.83,21.76,0,0-18.67-3.36-18.67-21.76V5.6Z" class="st0" id="Fill-2"></path>
  <path d="M117.45,32c0-8,6.54-14.56,14.52-14.56,2.23,0,4.95.64,6.7,1.6v-5.28c-1.92-.64-4.63-1.28-6.7-1.28-10.85.16-20.27,7.04-20.27,19.52s9.42,19.36,20.11,19.36c2.23,0,5.27-.48,7.18-1.28v-5.28c-1.92.96-4.95,1.6-7.18,1.6-7.98.16-14.36-6.4-14.36-14.4h0ZM94.79,24.96c0-7.52-6.06-11.84-12.61-11.84h-16.44v37.6h5.59v-13.92h10.53l8.3,13.92h6.54l-9.1-15.04c4.15-1.6,7.18-5.28,7.18-10.72h0ZM82.19,32h-10.85v-13.92h10.85c3.83,0,7.02,3.04,7.02,7.04,0,3.68-3.19,6.88-7.02,6.88h0ZM288.53,13.12h-10.53v37.6h10.53c10.37,0,19.47-6.72,19.47-18.88s-9.26-18.72-19.47-18.72h0ZM288.53,45.92h-4.95v-27.84h4.95c7.66,0,13.88,6.24,13.88,13.92s-6.22,13.92-13.88,13.92h0ZM255.34,13.12h-5.59v37.6h23.46v-4.96h-17.87V13.12ZM226.29,32h12.13l.8-4.96h-13.09v-8.96h18.03v-4.96h-23.46v37.6h24.42v-4.96h-18.83v-13.76ZM179.37,50.88h5.59v-18.88h13.09l.8-4.96h-14.04v-8.96h18.83v-4.96h-24.42l.16,37.76ZM168.04,27.04h-17.87v-13.92h-5.59v37.6h5.59v-18.72h17.87v18.88h5.59V13.12h-5.59v13.92h0ZM209.38,50.88h5.59V13.12h-5.59v37.76ZM101.34,50.88h5.59V13.12h-5.59v37.76Z" class="st0" id="Fill-4"></path>
  <polygon points="22.34 25.28 36.23 25.28 38.94 9.44 24.42 18.24 24.42 13.12 11.81 20.8 12.61 25.28 22.34 25.28" class="st1" id="Fill-6"></polygon>
</svg>